<svg width="73" height="105" xmlns="http://www.w3.org/2000/svg" preserveAspectRatio="xMidYMid" version="1.1" style=""><rect id="backgroundrect" width="100%" height="100%" x="0" y="0" fill="none" stroke="none" style="" class=""/>

 <g style="" class="currentLayer">
  <title>Layer 1</title>
  <g id="svg_1" class="">
   <path id="svg_2" fill="#264DE4" d="m36.45516521837664,103.40984787084275 l-29.91897506681813,-8.305711091039976 l-6.667307252365215,-74.78168055368131 l73.26223853348276,0 l-6.674377269817332,74.76996739001595 l-30.001578944482084,8.31742425470533 l0,0 z"/>
   <path id="svg_3" fill="#2965F1" d="m60.742746029664644,90.33133346637251 l5.7036989730191605,-63.89436011129617 l-29.94644283674912,0 l0,70.61539448210068 l24.24273884953319,-6.721034370804524 l0,0 z"/>
   <path id="svg_4" fill="#EBEBEB" d="m15.153543600530362,54.172421166677665 l0.8220274192198413,9.171562590069394 l20.524431146184472,0 l0,-9.171562590069394 l-21.34645856540432,0 l0,0 z"/>
   <path id="svg_5" fill="#EBEBEB" d="m13.501812026828844,35.60874152721349 l0.8337405828851925,9.171763157940374 l22.16444454202387,0 l0,-9.171763157940374 l-22.99819013910583,0 l0,0 z"/>
   <path id="svg_6" fill="#EBEBEB" d="m36.50000216593468,77.9922325750646 l-0.040193801344798545,0.010705310113665783 l-10.214545604356585,-2.758134148793228 l-0.6529787891626405,-7.314835609633918 l-9.206907663133197,0 l1.2849480938399098,14.400833306870892 l18.787468255709147,5.215531817639229 l0.04221452264494257,-0.011713163665350473 l0,-9.54238751253129 l0,0 z"/>
   <path id="svg_7" fill="#000000" d="m17.11065480039234,0.0000019402126717498092 l11.108481619520258,0 l0,4.645362488208295 l-6.463119131311961,0 l0,4.645367502405069 l6.463119131311961,0 l0,4.645362488208295 l-11.108481619520258,0 l0,-13.93609247882166 l0,0 z"/>
   <path id="svg_8" fill="#000000" d="m30.440831740977295,0.0000019402126717498092 l11.108481619520258,0 l0,4.039446949971589 l-6.463119131311961,0 l0,0.8078923985123836 l6.463119131311961,0 l0,9.290729990613361 l-11.108481619520258,0 l0,-4.241418796050491 l6.463114117115188,0 l0,-0.8078923985123836 l-6.463114117115188,0 l0,-9.088758144534461 l0,0 z"/>
   <path id="svg_9" fill="#000000" d="m43.77100868156224,0.0000019402126717498092 l11.108481619520258,0 l0,4.039446949971589 l-6.463114117115188,0 l0,0.8078923985123836 l6.463114117115188,0 l0,9.290729990613361 l-11.108481619520258,0 l0,-4.241418796050491 l6.463119131311961,0 l0,-0.8078923985123836 l-6.463119131311961,0 l0,-9.088758144534461 l0,0 z"/>
   <path id="svg_10" fill="#FFFFFF" d="m57.78768933094449,54.172421166677665 l1.6557680021050336,-18.56367963946417 l-22.975164947517097,0 l0,9.171763157940374 l12.923806377188265,0 l-0.8345478685658948,9.391916481523797 l-12.08925850862237,0 l0,9.171562590069394 l11.293891573652818,0 l-1.06459921658228,11.894963397805311 l-10.22929235707054,2.7609621557740756 l0,9.541981362592551 l18.80241557629408,-5.211089239296978 l0.13794556746466421,-1.549532215042627 l2.1552471854083506,-24.145999951161784 l0.22378360204819794,-2.4628531149367126 l0,0 z"/>
  </g>
 </g>
</svg>