<svg width="83" height="105" version="1.1" xmlns="http://www.w3.org/2000/svg" xmlns:xlink="http://www.w3.org/1999/xlink" preserveAspectRatio="xMidYMid"><rect id="backgroundrect" width="100%" height="100%" x="0" y="0" fill="none" stroke="none" style="" class=""/>
    
<g class="currentLayer" style=""><title>Layer 1</title><g id="svg_1" class="">
        <path d="M81.85163275293682,48.783663470796185 L45.42695457411938,12.361731810054646 C43.33079401090489,10.263740664950355 39.92842376980268,10.263740664950355 37.82951734678866,12.361731810054646 L30.265947885318674,19.925301069479406 L39.860687455970634,29.5200406727193 C42.0904895305172,28.766704455866844 44.64707303628195,29.271979776641768 46.424690399435605,31.04959707461953 C48.2105456678672,32.83819862649386 48.712159766204245,35.41675057487589 47.94051645952416,37.653875485353495 L57.187421584154905,46.900780544808356 C59.42454649463251,46.13005263335459 62.00584436798994,46.6289205460127 63.79261535752723,48.418437395349535 C66.28970078061731,50.914607423213305 66.28970078061731,54.96047183102136 63.79261535752723,57.45847264933775 C61.29461453921087,59.95647346765413 57.2487501314028,59.95647346765413 54.749833917860116,57.45847264933775 C52.87152796800381,55.57833558314944 52.40744344454832,52.81945885699427 53.35849606859935,50.50544433218036 L44.73494706745453,41.88189516809584 L44.73403167222821,64.57534921677768 C45.34274212385203,64.87741595452381 45.91758425562014,65.2792562096257 46.424690399435605,65.78453156298855 C48.921775822525674,68.28070159085232 48.921775822525674,72.32656599866037 46.424690399435605,74.82639728154997 C43.92668958111922,77.32348303051947 39.878994708737956,77.32348303051947 37.384655145447404,74.82639728154997 C34.88756972235732,72.32656599866037 34.88756972235732,68.28070159085232 37.384655145447404,65.78453156298855 C38.00160382822856,65.16849827543368 38.715579842686566,64.70258328740498 39.47715412775667,64.3895321328226 L39.47715412775667,41.48463156324608 C38.715579842686566,41.173411264292156 38.00251922345487,40.710242168650915 37.384655145447404,40.089632165668036 C35.49261859307591,38.20034173379959 35.037687696004085,35.42407341080694 36.00704757282242,33.10090512925761 L26.549611029231865,23.641637958154153 L1.5741798352347287,48.61523857026148 C-0.5247266627315493,50.71506038850182 -0.5247266627315493,54.11743062960404 1.5741798352347287,56.21542198327113 L37.99885764254965,92.63826871987716 C40.09593360099045,94.73626007354429 43.497388446866346,94.73626007354429 45.597210265106675,92.63826871987716 L81.85163275293682,56.384762279032124 C83.94962312896573,54.28585585601812 83.94962312896573,50.88165482446328 81.85163275293682,48.783663470796185 " fill="#DE4C36" id="svg_2"/>
    </g></g></svg>