<svg width="75" height="105" version="1.1" xmlns="http://www.w3.org/2000/svg" xmlns:xlink="http://www.w3.org/1999/xlink" preserveAspectRatio="xMidYMid"><rect id="backgroundrect" width="100%" height="100%" x="0" y="0" fill="none" stroke="none" style="" class=""/>
    
<g class="currentLayer" style=""><title>Layer 1</title><g id="svg_1" class="">
        <path d="M67.52194884440905,10.819786071777344 C71.62353211476888,10.819786071777344 74.95712062174678,14.111337593800991 75.02338239533064,18.198141440785868 L75.02438760489895,18.32222483226724 L75.02438760489895,86.67777785314672 C75.02438760489895,90.77936112350655 71.73181487201184,94.11294992354847 67.64600166931375,94.17921140406831 L67.52194884440905,94.1802166136366 L7.5024387604898966,94.1802166136366 C3.4008554901300694,94.1802166136366 0.06726686592655245,90.88764388074951 0.0010052517695180415,86.80183067805142 L0,86.67777785314672 L0,18.32222483226724 C0,14.219609976577846 3.2925727914999183,10.887032305997305 7.378386023504399,10.820791014071263 L7.5024387604898966,10.819786071777344 L67.52194884440905,10.819786071777344 zM67.52194884440905,14.987807598870308 L7.5024387604898966,14.987807598870308 C5.693061537549872,14.987807598870308 4.214864967022977,16.437732664941965 4.169113073319812,18.23631874336828 L4.1680215270929635,18.32222483226724 L4.1680215270929635,86.67777785314672 C4.1680215270929635,88.48715507608674 5.617946593164621,89.96535179314564 7.416532671590934,90.01110377476802 L7.5024387604898966,90.01219514515645 L67.52194884440905,90.01219514515645 C69.33235179139835,90.01219514515645 70.8095547283855,88.56227002047198 70.85527535215837,86.76368400065849 L70.85636613641879,86.67777785314672 L70.85636613641879,18.32222483226724 C70.85636613641879,16.484127335947214 69.36108847636315,14.987807598870308 67.52194884440905,14.987807598870308 zM18.756096901224737,65.00406604121147 L28.134145351837105,73.3401089781718 L18.756096901224737,81.67615220819613 L18.756096901224737,65.00406604121147 zM27.092139955410662,23.323850682362636 L27.092139955410662,46.98883496758511 C31.253909372052814,45.63422803428867 37.07142552527069,44.163958405746655 42.72222078458169,44.163958405746655 C47.87493734037615,44.163958405746655 50.95927314499353,46.189616871078925 52.638985953287225,47.8891276188439 C56.18763948699894,51.47904456573831 56.27214683997149,56.04223120629404 56.26741590759218,56.650797094567444 L56.26724856804014,56.66802281118714 L56.26829070367421,81.67615220819613 L47.932247766713886,81.67615220819613 L47.932247766713886,56.78264366386263 C47.89160945907323,54.83721938511359 46.953804614012,52.50000134270697 42.72222078458169,52.50000134270697 C34.331305713880774,52.50000134270697 24.929333803058086,56.67801482874725 24.650127291575902,56.80302831749011 L24.644469309800836,56.80556771717213 L18.756096901224737,59.47310143355431 L18.756096901224737,23.323850682362636 L27.092139955410662,23.323850682362636 zM56.26829070367421,23.323850682362636 C55.705607796637466,28.05872313151341 53.78623397810014,32.597698581609805 50.01625850095397,36.86992066006797 L50.01625850095397,36.86992066006797 L41.68021527092963,36.86992066006797 C44.956280294031565,32.571648443768495 47.01319901855388,28.048303093960733 47.932247766713886,23.323850682362636 L47.932247766713886,23.323850682362636 z" fill="#430098" id="svg_2"/>
    </g></g></svg>