<svg width="73" height="105" version="1.1" xmlns="http://www.w3.org/2000/svg" xmlns:xlink="http://www.w3.org/1999/xlink" preserveAspectRatio="xMidYMid" style=""><rect id="backgroundrect" width="100%" height="100%" x="0" y="0" fill="none" stroke="none" style="" class="selected"/>
    
<g class="currentLayer" style=""><title>Layer 1</title><g id="svg_1" class="">
        <path d="M72.8542396286452,20.209281727869055 L66.21703104238647,94.56284858735185 L36.382531644523425,102.83395189876745 L6.6301788849123335,94.57449768634162 L-4.755864497523349e-17,20.209281727869055 L72.8542396286452,20.209281727869055 L72.8542396286452,20.209281727869055 z" fill="#E44D26" id="svg_2"/>
        <path d="M36.427119841024336,96.5118732727824 L60.53485266532015,89.8282687678143 L66.20678785436547,26.289740831748066 L36.427119841024336,26.289740831748066 L36.427119841024336,96.5118732727824 L36.427119841024336,96.5118732727824 z" fill="#F16529" id="svg_3"/>
        <path d="M23.524672441224684,44.53111817194313 L36.427119841024336,44.53111817194313 L36.427119841024336,35.41042940189256 L13.557009614343022,35.41042940189256 L13.775330909911535,37.85735532933646 L16.01699055174544,62.9912183904823 L36.427119841024336,62.9912183904823 L36.427119841024336,53.87073066884164 L24.35818981964763,53.87073066884164 L23.524672441224684,44.53111817194313 L23.524672441224684,44.53111817194313 z" fill="#EBEBEB" id="svg_4"/>
        <path d="M25.580146376753884,67.55166315692247 L16.42451025261802,67.55166315692247 L17.702302436765304,81.87229513109226 L36.38514270363115,87.05878179959338 L36.427119841024336,87.04713270060361 L36.427119841024336,77.55788878230635 L36.3871511886694,77.56853378156706 L26.229486562468374,74.82575940733263 L25.580146376753884,67.55166315692247 L25.580146376753884,67.55166315692247 z" fill="#EBEBEB" id="svg_5"/>
        <path d="M6.778404395342334,0 L11.413363585447149,0 L11.413363585447149,4.579324411567609 L15.653255624800467,4.579324411567609 L15.653255624800467,0 L20.288415663409104,0 L20.288415663409104,13.867319100005398 L15.653456473304292,13.867319100005398 L15.653456473304292,9.223723452794152 L11.413564433950974,9.223723452794152 L11.413564433950974,13.867319100005398 L6.778605215288145,13.867319100005398 L6.778605215288145,0 L6.778404395342334,0 L6.778404395342334,0 z" fill="#000000" id="svg_6"/>
        <path d="M26.383536650951264,4.598605782260701 L22.303117552568064,4.598605782260701 L22.303117552568064,0 L35.101124187307306,0 L35.101124187307306,4.598605782260701 L31.018897623737768,4.598605782260701 L31.018897623737768,13.867319100005398 L26.38373749945509,13.867319100005398 L26.38373749945509,4.598605782260701 L26.383536650951264,4.598605782260701 L26.383536650951264,4.598605782260701 z" fill="#000000" id="svg_7"/>
        <path d="M37.132295710895896,0 L41.965290440566946,0 L44.93823611497948,4.8725618563664215 L47.908168919044606,0 L52.742971656504245,0 L52.742971656504245,13.867319100005398 L48.127092931472674,13.867319100005398 L48.127092931472674,6.99391381556985 L44.93823611497948,11.92452063251937 L44.8584995730994,11.92452063251937 L41.66743350873819,6.99391381556985 L41.66743350873819,13.867319100005398 L37.132295710895896,13.867319100005398 L37.132295710895896,0 L37.132295710895896,0 z" fill="#000000" id="svg_8"/>
        <path d="M55.04970572809099,0 L59.686070829164564,0 L59.686070829164564,9.283576021353653 L66.20417679525775,9.283576021353653 L66.20417679525775,13.867319100005398 L55.04970572809099,13.867319100005398 L55.04970572809099,0 L55.04970572809099,0 z" fill="#000000" id="svg_9"/>
        <path d="M36.395586654481946,62.9912183904823 L47.626580630351576,62.9912183904823 L46.567913392810226,74.81993471504768 L36.395586654481946,77.56552091121962 L36.395586654481946,87.05436330385733 L55.09328982486285,81.87229513109226 L55.23046852479244,80.33139272060377 L57.37371282812266,56.31986584415357 L57.596251999387505,53.87073066884164 L36.395586654481946,53.87073066884164 L36.395586654481946,62.9912183904823 L36.395586654481946,62.9912183904823 z" fill="#FFFFFF" id="svg_10"/>
        <path d="M36.395586654481946,44.50882407369267 L36.395586654481946,44.53111817194313 L58.426154133299626,44.53111817194313 L58.609126463449236,42.48106694611109 L59.02467981889466,37.85735532933646 L59.24280049442345,35.41042940189256 L36.395586654481946,35.41042940189256 L36.395586654481946,44.50882407369267 L36.395586654481946,44.50882407369267 z" fill="#FFFFFF" id="svg_11"/>
    </g></g></svg>