<svg width="83" height="105" version="1.1" xmlns="http://www.w3.org/2000/svg" xmlns:xlink="http://www.w3.org/1999/xlink" preserveAspectRatio="xMidYMid" style=""><rect id="backgroundrect" width="100%" height="100%" x="0" y="0" fill="none" stroke="none" style="" class=""/>
    
<g class="currentLayer" style=""><title>Layer 1</title><g id="svg_1" class="" opacity="1">
        <path d="M2.1277467635028025e-18,10.78572080211842 L83.42856034480944,10.78572080211842 L83.42856034480944,94.21428114692786 L2.1277467635028025e-18,94.21428114692786 L2.1277467635028025e-18,10.78572080211842 z" fill="#F7DF1E" id="svg_2" opacity="1"/>
        <path d="M21.936414308888608,80.50471741471762 L28.320950442824582,76.64091559321513 C29.552647309100266,78.82475755754874 30.673106138368592,80.67250170046262 33.36069770184881,80.67250170046262 C35.93691852476788,80.67250170046262 37.56112692059352,79.66473748613316 37.56112692059352,75.74491957832261 L37.56112692059352,49.08750790556277 L45.40129296382278,49.08750790556277 L45.40129296382278,75.8557602868113 C45.40129296382278,83.97614005174184 40.64136248905254,87.67229022587453 33.69679552326854,87.67229022587453 C27.42495416721782,87.67229022587453 23.784290731695652,84.42400574670565 21.93628189863835,80.50405520051986 " fill="#000000" id="svg_3" opacity="1"/>
        <path d="M49.65985722395121,79.66460517365073 L56.043598831207014,75.96845499951802 C57.724088590091206,78.71285737152219 59.90819517938967,80.72878273762835 63.77212931337459,80.72878273762835 C67.02067874340112,80.72878273762835 69.0922229324753,79.1045743418027 69.0922229324753,76.86445134030335 C69.0922229324753,74.17633000546496 66.96426506786015,73.2241849399963 63.380015079753974,71.65665517056928 L61.420503389188774,70.81601302778708 C55.76391468532827,68.40837069140039 52.01161578651224,65.38428417351751 52.01161578651224,58.99988035206395 C52.01161578651224,53.11962358863278 56.491729477028514,48.63924494725885 63.492312529120596,48.63924494725885 C68.47657327765926,48.63924494725885 72.0606906273902,50.375486167486294 74.6365141869692,54.91174858268587 L68.53219210062726,58.83169912887167 C67.18806543991325,56.42379184162731 65.73243585651277,55.47191172701633 63.492445167495845,55.47191172701633 C61.19630575379563,55.47191172701633 59.740146268679815,56.927938573756876 59.740146268679815,58.83169912887167 C59.740146268679815,61.18385462887997 61.19630575379563,62.13613200683104 64.55609315565094,63.592291491946824 L66.51600210955623,64.43227142053126 C73.1803550277462,67.28857397856194 76.9326536006694,70.20036337297107 76.9326536006694,76.75241851590158 C76.9326536006694,83.8091506185698 71.38849498455077,87.6729524400723 63.94031086245968,87.6729524400723 C56.660043338596026,87.6729524400723 51.9557320126866,84.20099990133274 49.65998986232644,79.66460517365073 " fill="#000000" id="svg_4" opacity="1"/>
    </g></g></svg>