<svg width="237" height="105" version="1.1" xmlns="http://www.w3.org/2000/svg" xmlns:xlink="http://www.w3.org/1999/xlink" preserveAspectRatio="xMidYMid"><rect id="backgroundrect" width="100%" height="100%" x="0" y="0" fill="none" stroke="none" style="" class=""/>
	
<g class="currentLayer" style=""><title>Layer 1</title><g fill="#CC0000" id="svg_1" class="">
		<path d="M101.43738120087339,80.65051421504401 C101.43738120087339,80.65051421504401 111.88561081003583,79.75495161098144 111.88561081003583,66.2618098887111 C111.88561081003583,52.76866784238238 99.22832717873418,51.51488033557693 99.22832717873418,51.51488033557693 L76.42133511491795,51.51488033557693 L76.42133511491795,94.08395188716099 L87.88453496550915,94.08395188716099 L87.88453496550915,83.81483535433966 L97.79542719741028,94.08395188716099 L114.75141077268366,94.08395188716099 L101.43738120087339,80.65051421504401 zM97.01927269365444,71.93370576385334 L87.88453496550915,71.93370576385334 L87.88453496550915,62.201926608293356 L97.07897720674833,62.201926608293356 C97.07897720674833,62.201926608293356 99.64625645568876,63.157193262509296 99.64625645568876,67.0379639295264 C99.64625645568876,70.91873505948402 97.01927269365444,71.93370576385334 97.01927269365444,71.93370576385334 zM140.18538613559375,51.81340118816644 L128.54307367160183,51.81340118816644 C120.24419403442528,51.81340118816644 117.4380981219308,59.33612618270504 117.4380981219308,62.91837659895531 L117.4380981219308,94.08395188716099 L129.0804110488632,94.08395188716099 L129.0804110488632,86.62093126683412 L140.0062739851336,86.62093126683412 L140.0062739851336,94.08395188716099 L151.29036168526468,94.08395188716099 L151.29036168526468,62.91837659895531 C151.29036168526468,53.84334287466936 143.05118656118196,51.81340118816644 140.18538613559375,51.81340118816644 zM140.0062739851336,74.56068906294715 L129.0207069987099,74.56068906294715 L129.0207069987099,64.23186801703196 C129.0207069987099,64.23186801703196 129.0207069987099,61.9034054316455 132.66266100217294,61.9034054316455 L136.66284023243736,61.9034054316455 C139.88686542188637,61.9034054316455 139.9465694720397,64.23186801703196 139.9465694720397,64.23186801703196 L139.9465694720397,74.56068906294715 L140.0062739851336,74.56068906294715 zM156.6040323336058,51.81340118816644 L168.72397858764606,51.81340118816644 L168.72397858764606,94.08395188716099 L156.6040323336058,94.08395188716099 L156.6040323336058,51.81340118816644 zM185.7396662130728,83.15808941383112 L185.7396662130728,51.81340118816644 L173.67942447212636,51.81340118816644 L173.67942447212636,83.15808941383112 L173.67942447212636,94.08395188716099 L185.7396662130728,94.08395188716099 L202.0389043107781,94.08395188716099 L202.0389043107781,83.15808941383112 L185.7396662130728,83.15808941383112 zM206.03908354104246,83.27749751413785 L206.03908354104246,94.08395188716099 L225.5623463652563,94.08395188716099 C229.56252559552073,94.08395188716099 236.42850478843278,91.15844787435981 236.6673214519868,82.9789768004305 L236.6673214519868,78.79968495676552 C236.6673214519868,71.81429720060606 230.93572152669125,67.69470987003501 225.5623463652563,67.69470987003501 L215.83056720969634,67.69470987003501 L215.83056720969634,62.679559935401336 L235.1150133703562,62.679559935401336 L235.1150133703562,51.81340118816644 L216.60672125051164,51.81340118816644 C211.83038797943203,51.81340118816644 205.4420416506872,55.75387627568934 205.4420416506872,63.097488749415405 L205.4420416506872,66.85885131612578 C205.4420416506872,74.20246429908644 211.77068346633808,77.96382686579682 216.60672125051164,77.96382686579682 C230.04015892262862,78.02353091595018 213.3826960610626,77.96382686579682 225.8011630288103,77.96382686579682 L225.8011630288103,83.21779346398446 L206.03908354104246,83.27749751413785 z" id="svg_2"/>
		<path d="M4.179291755706276,94.02424783700762 L51.34558451586861,94.02424783700762 C51.34558451586861,94.02424783700762 42.33025507320625,52.88807617415937 72.18233922109961,36.23061335888739 C78.69009318721051,33.06629245106198 99.40743979213481,21.24486718849332 133.31940694268155,46.320617741248604 C134.39408216014473,45.42505518348009 135.409052864514,44.70860519281814 135.409052864514,44.70860519281814 C135.409052864514,44.70860519281814 104.36288567661512,13.722142036554947 69.79417212261926,17.184983769193437 C52.42025927039128,18.737292128588386 31.046167326781088,34.55889662142141 18.50829207355048,55.45535542309984 C5.970416774025804,76.3518142710723 4.179291755706276,94.02424783700762 4.179291755706276,94.02424783700762 zM102.45235236818321,20.528417197831363 L102.69116903173722,16.528237921272954 C102.15383119153535,16.22971706868345 100.66122716005809,15.513267073392093 96.8998645933477,14.438592050363923 L96.66104792979368,18.379067133257408 C98.63128528837895,19.035812981177887 100.54181859681084,19.752263018133892 102.45235236818321,20.528417197831363 zM96.78045603010045,33.185700782838985 L96.54163936654646,36.94706334954936 C98.51187718807225,37.006767538584874 100.48211454665747,37.24558420213886 102.45235236818321,37.66351338650536 L102.69116903173722,33.96185496253645 C100.66122716005809,33.54392577816996 98.69098980147285,33.30510911461597 96.78045603010045,33.185700782838985 zM74.68991395694619,14.558000386770322 L75.28695584730141,14.558000386770322 L74.09287252953148,10.916046142578125 C72.242043271253,10.916046142578125 70.3315099628211,11.035454478521585 68.36127214129536,11.274271149945559 L69.4956514089119,14.796817059583116 C71.22707256688366,14.61770455265882 72.95849326191491,14.558000386770322 74.68991395694619,14.558000386770322 zM77.55571391959397,36.52913416518285 L78.92890985076451,40.64872177351825 C80.66033100873628,39.81286340478526 82.39175170376751,39.09641341412331 84.12317239879881,38.559075897979824 L82.80968098072213,34.61860081045693 C80.779739109043,35.2156424693419 79.04831841401177,35.87238831726236 77.55571391959397,36.52913416518285 zM50.45002191180602,20.826938004126816 L47.76333456255884,16.70735044208547 C46.270730160729165,17.48350462178294 44.718421801334216,18.319362944221886 43.10640925290375,19.27462964473187 L45.85280097636266,23.45392139580875 C47.40510933575761,22.498654741592812 48.89771336723486,21.603092183824295 50.45002191180602,20.826938004126816 zM62.68937626615308,47.693813579831044 L65.5551762288009,51.99251366268491 C66.57014739611068,50.49990949232548 67.76423071388065,49.126713607449 69.07772213195727,47.753517768866566 L66.3910347827101,43.69363434956667 C65.01783885153958,44.947421856372124 63.7640514836163,46.320617741248604 62.68937626615308,47.693813579831044 zM54.0322718651158,66.91855582921966 L58.86830964928935,70.7396224460834 C59.107126312843334,68.41115986069696 59.525055589797944,66.08269727531048 60.12209701721264,63.754234689924004 L55.82339707324094,60.35109735001484 C55.0472430324256,62.56015137215408 54.509905192223755,64.7692053942933 54.0322718651158,66.91855582921966 zM27.881846418955668,38.559075897979824 L23.642850478843286,34.857417474010916 C22.09054211944833,36.35002169066439 20.597937949088912,37.84262586102381 19.224742064212432,39.3352300776773 L23.821962999655803,43.27570516520018 C25.075750552755284,41.663692616769715 26.44894639133772,40.051680114633314 27.881846418955668,38.559075897979824 zM9.851187718807223,65.24683918434178 L2.9852083962717124,62.73926398555471 C1.8508292073550483,65.30654323449514 0.5970416774025817,68.29175129744968 0,69.90376389217423 L6.865979331794322,72.41133909096129 C7.642133511491795,70.38139721928216 8.895921018297235,67.45589320648101 9.851187718807223,65.24683918434178 zM53.136709261053234,82.08341419636793 C53.256117824300475,85.24773533566358 53.554638538007815,87.81501458460401 53.85315925171517,89.60613932978863 L61.017659621275214,92.17341857872908 C60.48032224401387,89.84495599334264 59.94298440381201,87.2179726942488 59.5847596399513,84.41187678175437 L53.136709261053234,82.08341419636793 z" id="svg_3"/>
	</g></g></svg>