<svg width="83" height="105" version="1.1" xmlns="http://www.w3.org/2000/svg" xmlns:xlink="http://www.w3.org/1999/xlink" preserveAspectRatio="xMidYMid"><rect id="backgroundrect" width="100%" height="100%" x="0" y="0" fill="none" stroke="none" style="" class=""/>
    <defs>
        <linearGradient x1="84.7503645%" y1="111.399353%" x2="58.2543962%" y2="64.5837087%" id="linearGradient-1">
            <stop stop-color="#FB7655" offset="0%"/>
            <stop stop-color="#FB7655" offset="0%"/>
            <stop stop-color="#E42B1E" offset="41%"/>
            <stop stop-color="#990000" offset="99%"/>
            <stop stop-color="#990000" offset="100%"/>
        </linearGradient>
        <linearGradient x1="116.651024%" y1="60.8903211%" x2="1.74616041%" y2="19.2879503%" id="linearGradient-2">
            <stop stop-color="#871101" offset="0%"/>
            <stop stop-color="#871101" offset="0%"/>
            <stop stop-color="#911209" offset="99%"/>
            <stop stop-color="#911209" offset="100%"/>
        </linearGradient>
        <linearGradient x1="75.7744024%" y1="219.327131%" x2="38.9781357%" y2="7.82868176%" id="linearGradient-3">
            <stop stop-color="#871101" offset="0%"/>
            <stop stop-color="#871101" offset="0%"/>
            <stop stop-color="#911209" offset="99%"/>
            <stop stop-color="#911209" offset="100%"/>
        </linearGradient>
        <linearGradient x1="50.012428%" y1="7.23449921%" x2="66.4830414%" y2="79.1354134%" id="linearGradient-4">
            <stop stop-color="#FFFFFF" offset="0%"/>
            <stop stop-color="#FFFFFF" offset="0%"/>
            <stop stop-color="#E57252" offset="23%"/>
            <stop stop-color="#DE3B20" offset="46%"/>
            <stop stop-color="#A60003" offset="99%"/>
            <stop stop-color="#A60003" offset="100%"/>
        </linearGradient>
        <linearGradient x1="46.1741749%" y1="16.347907%" x2="49.9323342%" y2="83.0468449%" id="linearGradient-5">
            <stop stop-color="#FFFFFF" offset="0%"/>
            <stop stop-color="#FFFFFF" offset="0%"/>
            <stop stop-color="#E4714E" offset="23%"/>
            <stop stop-color="#BE1A0D" offset="56%"/>
            <stop stop-color="#A80D00" offset="99%"/>
            <stop stop-color="#A80D00" offset="100%"/>
        </linearGradient>
        <linearGradient x1="36.9653573%" y1="15.5936471%" x2="49.5282324%" y2="92.4776332%" id="linearGradient-6">
            <stop stop-color="#FFFFFF" offset="0%"/>
            <stop stop-color="#FFFFFF" offset="0%"/>
            <stop stop-color="#E46342" offset="18%"/>
            <stop stop-color="#C82410" offset="40%"/>
            <stop stop-color="#A80D00" offset="99%"/>
            <stop stop-color="#A80D00" offset="100%"/>
        </linearGradient>
        <linearGradient x1="13.6086166%" y1="58.3456855%" x2="85.7636612%" y2="-46.7167814%" id="linearGradient-7">
            <stop stop-color="#FFFFFF" offset="0%"/>
            <stop stop-color="#FFFFFF" offset="0%"/>
            <stop stop-color="#C81F11" offset="54%"/>
            <stop stop-color="#BF0905" offset="99%"/>
            <stop stop-color="#BF0905" offset="100%"/>
        </linearGradient>
        <linearGradient x1="27.6242038%" y1="21.1345847%" x2="50.7445145%" y2="79.0557818%" id="linearGradient-8">
            <stop stop-color="#FFFFFF" offset="0%"/>
            <stop stop-color="#FFFFFF" offset="0%"/>
            <stop stop-color="#DE4024" offset="31%"/>
            <stop stop-color="#BF190B" offset="99%"/>
            <stop stop-color="#BF190B" offset="100%"/>
        </linearGradient>
        <linearGradient x1="-20.6671297%" y1="122.281897%" x2="104.241521%" y2="-6.34211007%" id="linearGradient-9">
            <stop stop-color="#BD0012" offset="0%"/>
            <stop stop-color="#BD0012" offset="0%"/>
            <stop stop-color="#FFFFFF" offset="7%"/>
            <stop stop-color="#FFFFFF" offset="17%"/>
            <stop stop-color="#C82F1C" offset="27%"/>
            <stop stop-color="#820C01" offset="33%"/>
            <stop stop-color="#A31601" offset="46%"/>
            <stop stop-color="#B31301" offset="72%"/>
            <stop stop-color="#E82609" offset="99%"/>
            <stop stop-color="#E82609" offset="100%"/>
        </linearGradient>
        <linearGradient x1="58.7919609%" y1="65.2049657%" x2="11.9636556%" y2="50.1275621%" id="linearGradient-10">
            <stop stop-color="#8C0C01" offset="0%"/>
            <stop stop-color="#8C0C01" offset="0%"/>
            <stop stop-color="#990C00" offset="54%"/>
            <stop stop-color="#A80D0E" offset="99%"/>
            <stop stop-color="#A80D0E" offset="100%"/>
        </linearGradient>
        <linearGradient x1="79.3194899%" y1="62.7538068%" x2="23.088288%" y2="17.8876818%" id="linearGradient-11">
            <stop stop-color="#7E110B" offset="0%"/>
            <stop stop-color="#7E110B" offset="0%"/>
            <stop stop-color="#9E0C00" offset="99%"/>
            <stop stop-color="#9E0C00" offset="100%"/>
        </linearGradient>
        <linearGradient x1="92.8800277%" y1="74.1223655%" x2="59.8414537%" y2="39.7039965%" id="linearGradient-12">
            <stop stop-color="#79130D" offset="0%"/>
            <stop stop-color="#79130D" offset="0%"/>
            <stop stop-color="#9E120B" offset="99%"/>
            <stop stop-color="#9E120B" offset="100%"/>
        </linearGradient>
        <radialGradient cx="32.0008013%" cy="40.2100469%" fx="32.0008013%" fy="40.2100469%" r="69.5729556%" id="radialGradient-13">
            <stop stop-color="#A80D00" offset="0%"/>
            <stop stop-color="#A80D00" offset="0%"/>
            <stop stop-color="#7E0E08" offset="99%"/>
            <stop stop-color="#7E0E08" offset="100%"/>
        </radialGradient>
        <radialGradient cx="13.5493795%" cy="40.859922%" fx="13.5493795%" fy="40.859922%" r="88.3861936%" id="radialGradient-14">
            <stop stop-color="#A30C00" offset="0%"/>
            <stop stop-color="#A30C00" offset="0%"/>
            <stop stop-color="#800E08" offset="99%"/>
            <stop stop-color="#800E08" offset="100%"/>
        </radialGradient>
        <linearGradient x1="56.5701955%" y1="101.716594%" x2="3.10480737%" y2="11.9932603%" id="linearGradient-15">
            <stop stop-color="#8B2114" offset="0%"/>
            <stop stop-color="#8B2114" offset="0%"/>
            <stop stop-color="#9E100A" offset="43%"/>
            <stop stop-color="#B3100C" offset="99%"/>
            <stop stop-color="#B3100C" offset="100%"/>
        </linearGradient>
        <linearGradient x1="30.8698732%" y1="35.5989756%" x2="92.4707626%" y2="100.693616%" id="linearGradient-16">
            <stop stop-color="#B31000" offset="0%"/>
            <stop stop-color="#B31000" offset="0%"/>
            <stop stop-color="#910F08" offset="44%"/>
            <stop stop-color="#791C12" offset="99%"/>
            <stop stop-color="#791C12" offset="100%"/>
        </linearGradient>
    </defs>
    
<g class="currentLayer" style=""><title>Layer 1</title><g id="svg_1" class="" transform="translate(0, 0.454545) translate(0, 0.454545) translate(0, 0.454545) translate(0, -0.454545) translate(0, -0.454545) translate(0, -0.454545) translate(0, -0.454545) translate(0, -0.454545) translate(0, -0.454545) translate(0, -0.454545) translate(0, -0.454545) translate(0, 0.454545) translate(0, 0.454545) translate(0, 0.454545) translate(0, 0.454545) translate(0, 0.454545) translate(0, 0.454545) translate(0, 0.454545) translate(0, 0.454545) translate(0, 0.454545) translate(0, 0.454545) translate(0, 0.454545) translate(0, 0.454545) translate(0, 0.454545) translate(0, 0.454545) translate(0, 0.454545) translate(0, 0.454545) translate(0, 0.454545) translate(0, 0.454545) translate(0, 0.454545) translate(0, 0.454545) translate(0, 0.454545) translate(0, 0.454545) translate(0, 0.454545) translate(0, 0.454545) translate(0, 0.454545) translate(0, 0.454545) translate(0, 0.454545) translate(0, 0.454545) translate(0, 0.454545) translate(0, 0.454545) translate(0, 0.454545) translate(0, 0.454545) translate(0, 0.454545) translate(0, 0.454545) translate(-6.30137, -1.36986) translate(83.0137, 2.87671) translate(-76.4407) translate(1.09589, 4.52055) translate(2.85714, -137.143) translate(-0) translate(0, 254.173) scale(0.869605) translate(-0, -254.173) translate(0, 254.173) scale(0.700991) translate(-0, -254.173) translate(0, 254.173) scale(0.734714) translate(-0, -254.173) translate(0) scale(0.682928) translate(-0) translate(0, 716.596) scale(1.00484) translate(-0, -716.596) translate(254.881, 713.133) scale(1.02096) translate(-254.881, -713.133) translate(254.881, 683.263) scale(1.02298) translate(-254.881, -683.263)">
        <path d="M197.467337,167.763618 L51.9461307,254.173266 L240.368563,241.387417 L254.880804,51.3929648 L197.467337,167.763618 Z" fill="url(#linearGradient-1)" id="svg_2"/>
        <path d="M240.677307,241.257487 L224.482412,129.479397 L180.369367,187.729045 L240.677307,241.257487 Z" fill="url(#linearGradient-2)" id="svg_3"/>
        <path d="M240.896,241.257487 L122.249648,231.943719 L52.5764824,253.930131 L240.896,241.257487 Z" fill="url(#linearGradient-3)" id="svg_4"/>
        <path d="M52.7437186,253.954573 L82.3831156,156.854673 L17.161005,170.800884 L52.7437186,253.954573 Z" fill="url(#linearGradient-4)" id="svg_5"/>
        <path d="M180.357789,188.050653 L153.085427,81.2253266 L75.0375879,154.384724 L180.357789,188.050653 Z" fill="url(#linearGradient-5)" id="svg_6"/>
        <path d="M248.693065,82.7304523 L174.916181,22.4739698 L154.371859,88.8924623 L248.693065,82.7304523 Z" fill="url(#linearGradient-6)" id="svg_7"/>
        <path d="M214.190955,0.990552764 L170.799598,24.9696482 L143.424322,0.668944724 L214.190955,0.990552764 Z" fill="url(#linearGradient-7)" id="svg_8"/>
        <path d="M0,203.37206 L18.1772864,170.220704 L3.47336683,130.727236 L0,203.37206 Z" fill="url(#linearGradient-8)" id="svg_9"/>
        <path d="M2.49567839,129.479397 L17.2896482,171.442814 L81.5726633,157.020623 L154.963618,88.8139899 L175.675176,23.0271357 L143.062834,0 L87.617608,20.7501508 C70.1491457,36.9977889 36.2516583,69.1457286 35.0295477,69.7503518 C33.8203015,70.3678392 12.6456281,110.388744 2.49567839,129.479397 L2.49567839,129.479397 Z" fill="#FFFFFF" id="svg_10"/>
        <path d="M54.441809,54.0944724 C92.3015075,16.5563819 141.108744,-5.62170854 159.839196,13.2759799 C178.55807,32.1736683 158.707136,78.0992965 120.847437,115.624523 C82.9877387,153.149749 34.7851256,176.54995 16.0675377,157.652261 C-2.66291457,138.767437 16.5821106,91.6196985 54.441809,54.0944724 L54.441809,54.0944724 Z" fill="url(#linearGradient-9)" id="svg_11"/>
        <path d="M52.7437186,253.91598 L82.1515578,156.507337 L179.817487,187.883417 C144.504925,220.996181 105.230151,248.988945 52.7437186,253.91598 L52.7437186,253.91598 Z" fill="url(#linearGradient-10)" id="svg_12"/>
        <path d="M155.092261,88.6223116 L180.164824,187.934874 C209.662714,156.918995 236.137487,123.574673 249.103437,82.3316583 L155.092261,88.6223116 L155.092261,88.6223116 Z" fill="url(#linearGradient-11)" id="svg_13"/>
        <path d="M248.847437,82.8333668 C258.881608,52.5507538 261.197186,9.1079397 213.880925,1.04201005 L175.056402,22.4868342 L248.847437,82.8333668 L248.847437,82.8333668 Z" fill="url(#linearGradient-12)" id="svg_14"/>
        <path d="M0,202.934673 C1.38934673,252.913849 37.4480402,253.658693 52.8080402,254.097367 L17.3282412,171.236985 L0,202.934673 L0,202.934673 Z" fill="#9E1209" id="svg_15"/>
        <path d="M155.232482,88.7766834 C177.899417,102.708744 223.58191,130.688643 224.508141,131.203216 C225.947658,132.013668 244.203417,100.418894 248.345729,82.5632161 L155.232482,88.7766834 L155.232482,88.7766834 Z" fill="url(#radialGradient-13)" id="svg_16"/>
        <path d="M82.1129648,156.507337 L121.426332,232.355377 C144.672161,219.748342 162.875176,204.388342 179.547337,187.934874 L82.1129648,156.507337 L82.1129648,156.507337 Z" fill="url(#radialGradient-14)" id="svg_17"/>
        <path d="M17.1738693,171.339899 L11.6036181,237.668342 C22.1137688,252.024925 36.5732663,253.272764 51.7403015,252.153568 C40.7670352,224.842613 18.8462312,170.233568 17.1738693,171.339899 L17.1738693,171.339899 Z" fill="url(#linearGradient-15)" id="svg_18"/>
        <path d="M174.826131,22.6540704 L252.925427,33.6144724 C248.757387,15.9517588 235.957387,4.55396985 214.139497,0.990552764 L174.826131,22.6540704 L174.826131,22.6540704 Z" fill="url(#linearGradient-16)" id="svg_19" transform="translate(-0, 254.173) scale(0.869605) translate(0, -254.173) translate(-0, 292.286) scale(0.700991) translate(0, -292.286) translate(-0, 416.961) scale(0.734714) translate(0, -416.961) translate(-0, 567.514) scale(0.734714) translate(0, -567.514) translate(-0, 772.428) scale(0.734714) translate(0, -772.428) translate(-0, 1051.33) scale(0.734714) translate(0, -1051.33) translate(-0, 1430.94) scale(0.734714) translate(0, -1430.94) translate(-0, 1947.61) scale(0.734714) translate(0, -1947.61) translate(-0, 2650.85) scale(0.734714) translate(0, -2650.85) translate(-0, 3608) scale(0.734714) translate(0, -3608) translate(-0, 4910.75) scale(0.734714) translate(0, -4910.75) translate(-0) scale(0.682928) translate(0) translate(-0, 3.63798e-12) scale(0.682928) translate(0, -3.63798e-12) translate(-0, 40403.9) scale(1.00484) translate(0, -40403.9) translate(14301.8, 40015.1) scale(1.02096) translate(-14301.8, -40015.1) translate(14008.2, 39193.6) scale(1.02096) translate(-14008.2, -39193.6) translate(13720.6, 36781) scale(1.02298) translate(-13720.6, -36781) translate(13412.4, 35954.8) scale(1.02298) translate(-13412.4, -35954.8) translate(13111.1, 35147.2) scale(1.02298) translate(-13111.1, -35147.2) translate(12816.6, 34357.8) scale(1.02298) translate(-12816.6, -34357.8) translate(12528.8, 33586.1) scale(1.02298) translate(-12528.8, -33586.1) translate(12247.4, 32831.7) scale(1.02298) translate(-12247.4, -32831.7) translate(11972.3, 32094.2) scale(1.02298) translate(-11972.3, -32094.2) translate(11703.4, 31373.3) scale(1.02298) translate(-11703.4, -31373.3) translate(11440.5, 30668.7) scale(1.02298) translate(-11440.5, -30668.7) translate(11183.5, 29979.8) scale(1.02298) translate(-11183.5, -29979.8) translate(10932.3, 29306.4) scale(1.02298) translate(-10932.3, -29306.4) translate(10686.8, 28648.1) scale(1.02298) translate(-10686.8, -28648.1) translate(10446.7, 28004.7) scale(1.02298) translate(-10446.7, -28004.7) translate(10212.1, 27375.6) scale(1.02298) translate(-10212.1, -27375.6) translate(9982.69, 26760.8) scale(1.02298) translate(-9982.69, -26760.8) translate(9758.47, 26159.7) scale(1.02298) translate(-9758.47, -26159.7) translate(9539.28, 25572.1) scale(1.02298) translate(-9539.28, -25572.1) translate(9325.01, 24997.7) scale(1.02298) translate(-9325.01, -24997.7) translate(9115.56, 24436.2) scale(1.02298) translate(-9115.56, -24436.2) translate(8910.81, 23887.3) scale(1.02298) translate(-8910.81, -23887.3) translate(8710.67, 23350.8) scale(1.02298) translate(-8710.67, -23350.8) translate(8515.01, 22826.3) scale(1.02298) translate(-8515.01, -22826.3) translate(8323.75, 22313.6) scale(1.02298) translate(-8323.75, -22313.6) translate(8136.79, 21812.4) scale(1.02298) translate(-8136.79, -21812.4) translate(7954.03, 21322.5) scale(1.02298) translate(-7954.03, -21322.5) translate(7775.37, 20843.5) scale(1.02298) translate(-7775.37, -20843.5) translate(7600.72, 20375.4) scale(1.02298) translate(-7600.72, -20375.4) translate(7430, 19917.7) scale(1.02298) translate(-7430, -19917.7) translate(7263.11, 19470.3) scale(1.02298) translate(-7263.11, -19470.3) translate(7099.97, 19033) scale(1.02298) translate(-7099.97, -19033) translate(6940.5, 18605.5) scale(1.02298) translate(-6940.5, -18605.5) translate(6784.6, 18187.6) scale(1.02298) translate(-6784.6, -18187.6) translate(6632.21, 17779.1) scale(1.02298) translate(-6632.21, -17779.1) translate(6483.24, 17379.7) scale(1.02298) translate(-6483.24, -17379.7) translate(6337.62, 16989.4) scale(1.02298) translate(-6337.62, -16989.4) translate(6195.27, 16607.8) scale(1.02298) translate(-6195.27, -16607.8) translate(6056.12, 16234.7) scale(1.02298) translate(-6056.12, -16234.7) translate(5920.09, 15870.1) scale(1.02298) translate(-5920.09, -15870.1) translate(5787.11, 15513.6) scale(1.02298) translate(-5787.11, -15513.6) translate(5657.13, 15165.1) scale(1.02298) translate(-5657.13, -15165.1) translate(5530.06, 14824.5) scale(1.02298) translate(-5530.06, -14824.5) translate(5405.85, 14491.5) scale(1.02298) translate(-5405.85, -14491.5) translate(5284.43, 14166) scale(1.02298) translate(-5284.43, -14166) translate(5165.73, 13847.8) scale(1.02298) translate(-5165.73, -13847.8) translate(5049.7, 13536.8) scale(1.02298) translate(-5049.7, -13536.8) translate(4936.28, 13232.8) scale(1.02298) translate(-4936.28, -13232.8) translate(4825.4, 12935.5) scale(1.02298) translate(-4825.4, -12935.5) translate(4717.02, 12645) scale(1.02298) translate(-4717.02, -12645) translate(4611.07, 12361) scale(1.02298) translate(-4611.07, -12361) translate(4507.5, 12083.3) scale(1.02298) translate(-4507.5, -12083.3) translate(4406.25, 11811.9) scale(1.02298) translate(-4406.25, -11811.9) translate(4307.28, 11546.6) scale(1.02298) translate(-4307.28, -11546.6)"/>
    </g></g></svg>